<svg width="306" height="47" viewBox="0 0 306 47" fill="none" xmlns="http://www.w3.org/2000/svg">
<path d="M17.2656 40.6875L5.3125 39.6328C3.8125 39.4922 2.66406 38.9141 1.86719 37.8984C1.07031 36.8672 0.734375 35.5859 0.859375 34.0547L3.15625 7.35938C3.28125 5.89062 3.83594 4.75 4.82031 3.9375C5.82031 3.125 7.00781 2.78125 8.38281 2.90625C9.75781 3 10.8594 3.53906 11.6875 4.52344C12.5312 5.49219 12.8906 6.72656 12.7656 8.22656L10.75 31.0312L18.0391 31.6641C19.4141 31.7891 20.4688 32.2734 21.2031 33.1172C21.9375 33.9609 22.3047 34.9453 22.3047 36.0703C22.3047 37.3828 21.875 38.4844 21.0156 39.375C20.0625 40.375 18.8125 40.8125 17.2656 40.6875ZM32.7812 40.5469C28.25 39.8281 24.625 37.7734 21.9062 34.3828C19.2812 31.0859 17.9688 27.1562 17.9688 22.5938C17.9688 21.4688 18.0625 20.3125 18.25 19.125C18.9844 14.3906 20.9609 10.5312 24.1797 7.54688C27.3984 4.54688 31.2266 3.04688 35.6641 3.04688C36.6641 3.04688 37.6562 3.125 38.6406 3.28125C43.1562 3.98438 46.7578 6.04688 49.4453 9.46875C52.1328 12.875 53.4766 16.8281 53.4766 21.3281C53.4766 22.4531 53.3828 23.5781 53.1953 24.7031C52.4609 29.4062 50.4922 33.2656 47.2891 36.2812C44.0859 39.2812 40.2422 40.7812 35.7578 40.7812C34.7734 40.7812 33.7812 40.7031 32.7812 40.5469ZM37.2578 12.2109C36.8359 12.1172 36.4219 12.0703 36.0156 12.0703C33.8906 12.0703 32.125 12.875 30.7188 14.4844C29.3125 16.0781 28.4062 18.1562 28 20.7188C27.8594 21.5156 27.7891 22.3125 27.7891 23.1094C27.7891 25.3906 28.3359 27.2969 29.4297 28.8281C30.5234 30.3594 32.1094 31.2891 34.1875 31.6172C34.625 31.7109 35.0547 31.7578 35.4766 31.7578C37.5859 31.7578 39.3594 30.9375 40.7969 29.2969C42.1406 27.7656 43.0234 25.7031 43.4453 23.1094C43.5703 22.3438 43.6328 21.5781 43.6328 20.8125C43.6328 18.5312 43.1094 16.625 42.0625 15.0938C40.9062 13.5 39.3047 12.5391 37.2578 12.2109ZM63.2969 27.5391C63.3906 29.1953 63.2891 31.7344 62.9922 35.1562C62.9297 36.6562 62.3906 37.8203 61.375 38.6484C60.375 39.4609 59.1719 39.8047 57.7656 39.6797C56.3906 39.5391 55.2891 38.9844 54.4609 38.0156C53.6328 37.0469 53.2969 35.8203 53.4531 34.3359L55.7969 7.45312C55.9219 5.95312 56.4531 4.79688 57.3906 3.98438C58.3438 3.17188 59.5703 2.82813 61.0703 2.95312L69.4844 3.67969C73.2969 4.02344 76.2422 5.125 78.3203 6.98438C80.5234 8.96875 81.625 11.7188 81.625 15.2344C81.625 15.75 81.6094 16.2812 81.5781 16.8281C81.3594 19.3281 80.4141 21.375 78.7422 22.9688C77.2422 24.4375 75.3047 25.4141 72.9297 25.8984L79.0234 33.6797C79.8047 34.6641 80.1406 35.6719 80.0312 36.7031C79.9375 37.9844 79.3906 39.0781 78.3906 39.9844C77.4062 40.8906 76.2266 41.2812 74.8516 41.1562C73.3203 41.0312 72.1406 40.3594 71.3125 39.1406L63.2969 27.5391ZM68.7109 12.7031L64.9609 12.3516L64.4453 18.3984L68.1953 18.75C70.3672 18.9375 71.5312 18.0078 71.6875 15.9609C71.875 13.9766 70.8828 12.8906 68.7109 12.7031ZM96.4141 41.0625L84.25 38.7188C83.0781 38.4844 82.1172 37.9453 81.3672 37.1016C80.6016 36.2578 80.2188 35.2422 80.2188 34.0547C80.2188 33.7422 80.2734 33.4062 80.3828 33.0469L85.4219 7.125C86 4.1875 87.5625 2.71875 90.1094 2.71875C90.5 2.71875 90.8906 2.75 91.2812 2.8125L102.93 5.0625C104.18 5.3125 105.125 5.85156 105.766 6.67969C106.406 7.49219 106.727 8.42188 106.727 9.46875C106.727 10.7188 106.289 11.7969 105.414 12.7031C104.555 13.5938 103.5 14.0391 102.25 14.0391C101.906 14.0391 101.57 14.0078 101.242 13.9453L94.0938 12.5625L93.2266 17.0625L99.7656 18.3516C101.016 18.6172 101.977 19.1562 102.648 19.9688C103.32 20.7812 103.656 21.7188 103.656 22.7812C103.656 24.0625 103.211 25.1406 102.32 26.0156C101.445 26.8906 100.367 27.3281 99.0859 27.3281C98.7734 27.3281 98.4375 27.2969 98.0781 27.2344L91.5156 25.9453L90.6016 30.75L98.125 32.2266C99.3438 32.4609 100.273 32.9844 100.914 33.7969C101.555 34.6094 101.875 35.5469 101.875 36.6094C101.875 37.8438 101.453 38.9062 100.609 39.7969C99.7656 40.7031 98.7031 41.1562 97.4219 41.1562C97.0938 41.1562 96.7578 41.125 96.4141 41.0625ZM126.672 23.6953C126.094 20.6484 125.273 15.2031 124.211 7.35938C124.18 7.14062 124.164 6.90625 124.164 6.65625C124.164 5.53125 124.492 4.44531 125.148 3.39844C125.805 2.33594 126.727 1.54688 127.914 1.03125C128.68 0.6875 129.492 0.515625 130.352 0.515625C132.508 0.515625 134.125 1.32813 135.203 2.95312C137.922 6.76562 140.656 10.5859 143.406 14.4141C146.703 18.9922 149.109 23.0078 150.625 26.4609C150.938 27.1328 151.094 27.8047 151.094 28.4766C151.094 30.3984 150.148 31.7812 148.258 32.625C147.398 33 146.617 33.1875 145.914 33.1875C144.383 33.1875 143.07 32.3438 141.977 30.6562L133.961 17.8828C134.633 21.3984 135.477 26.7266 136.492 33.8672C136.523 34.1484 136.539 34.4375 136.539 34.7344C136.539 36.8125 135.5 38.3125 133.422 39.2344C132.625 39.5938 131.844 39.7734 131.078 39.7734C129.641 39.7734 128.406 39.1641 127.375 37.9453L116.875 25.4062C117.953 28.5781 119.422 33.3984 121.281 39.8672C121.484 40.5703 121.586 41.2109 121.586 41.7891C121.586 43.6172 120.57 44.9766 118.539 45.8672C117.914 46.1484 117.242 46.2891 116.523 46.2891C114.617 46.2891 113.242 45.3672 112.398 43.5234C110.867 40.0547 109.492 35.5703 108.273 30.0703C107.258 25.4609 106.234 20.8516 105.203 16.2422C105.109 15.8984 105.062 15.5156 105.062 15.0938C105.062 14 105.383 12.9375 106.023 11.9062C106.664 10.8594 107.562 10.0859 108.719 9.58594C109.516 9.22656 110.344 9.04688 111.203 9.04688C113.156 9.04688 114.727 9.73438 115.914 11.1094L126.672 23.6953ZM162.461 35.6016C162.461 35.2734 162.492 34.9531 162.555 34.6406L166.82 7.71094C167.008 6.39844 167.523 5.36719 168.367 4.61719C169.227 3.85156 170.25 3.46875 171.438 3.46875C172.844 3.46875 174.016 3.91406 174.953 4.80469C175.906 5.67969 176.383 6.82031 176.383 8.22656C176.383 8.55469 176.352 8.875 176.289 9.1875L172 36.1172C171.812 37.4297 171.297 38.4609 170.453 39.2109C169.609 39.9609 168.594 40.3359 167.406 40.3359C166 40.3359 164.82 39.8984 163.867 39.0234C162.93 38.1484 162.461 37.0078 162.461 35.6016ZM191.406 28.7344L187.328 29.4375L188.477 36.0234C188.539 36.3828 188.57 36.7344 188.57 37.0781C188.57 38.4844 188.094 39.6172 187.141 40.4766C186.203 41.3516 185.031 41.7891 183.625 41.7891C182.469 41.7891 181.469 41.4297 180.625 40.7109C179.781 39.9922 179.25 38.9766 179.031 37.6641L174.32 11.1094C174.258 10.7656 174.227 10.4141 174.227 10.0547C174.227 7.42969 175.602 5.875 178.352 5.39062L186.695 3.91406C187.664 3.75781 188.609 3.67969 189.531 3.67969C192.766 3.67969 195.539 4.60938 197.852 6.46875C200.18 8.3125 201.633 10.8359 202.211 14.0391C202.336 14.8672 202.398 15.6641 202.398 16.4297C202.398 19.6016 201.367 22.3047 199.305 24.5391C197.242 26.7578 194.609 28.1562 191.406 28.7344ZM188.102 12.5625L184.445 13.1719L185.781 20.8594L189.438 20.1797C191.484 19.8359 192.508 18.6406 192.508 16.5938C192.508 15.4375 192.203 14.4766 191.594 13.7109C190.891 12.8672 189.977 12.4453 188.852 12.4453C188.602 12.4453 188.352 12.4844 188.102 12.5625ZM214.445 40.7812C211.586 40.7812 208.93 40.3125 206.477 39.375C203.211 38.1719 201.578 36.4453 201.578 34.1953C201.578 32.9453 201.984 31.8672 202.797 30.9609C203.609 30.0547 204.672 29.6016 205.984 29.6016C206.922 29.6016 208.258 29.9141 209.992 30.5391C211.742 31.1484 213.094 31.4531 214.047 31.4531C216.516 31.4531 217.75 30.4844 217.75 28.5469C217.75 27.5781 216.359 26.6953 213.578 25.8984C209.828 24.8359 207.266 23.8594 205.891 22.9688C203.109 21.1719 201.719 18.5625 201.719 15.1406C201.719 11.5 203.047 8.53906 205.703 6.25781C208.203 4.11719 211.242 3.04688 214.82 3.04688C216.961 3.04688 219.117 3.49219 221.289 4.38281C224.055 5.57031 225.438 7.125 225.438 9.04688C225.438 10.2969 225.031 11.4062 224.219 12.375C223.422 13.3281 222.352 13.8047 221.008 13.8047C220.273 13.8047 219.219 13.5625 217.844 13.0781C216.469 12.5938 215.398 12.3516 214.633 12.3516C212.805 12.3516 211.891 12.9922 211.891 14.2734C211.891 14.9453 213.281 15.6797 216.062 16.4766C219.578 17.4766 222.141 18.5703 223.75 19.7578C226.531 21.8047 227.922 24.6953 227.922 28.4297C227.922 32.1484 226.562 35.1797 223.844 37.5234C221.281 39.6953 218.148 40.7812 214.445 40.7812ZM239.828 40.5469C235.953 39.9375 232.75 38.2188 230.219 35.3906C227.688 32.5469 226.422 29.2188 226.422 25.4062C226.422 24.5781 226.484 23.75 226.609 22.9219L229.305 5.97656C229.492 4.66406 230.016 3.64062 230.875 2.90625C231.75 2.17188 232.781 1.80469 233.969 1.80469C235.344 1.80469 236.5 2.23437 237.438 3.09375C238.391 3.95312 238.867 5.09375 238.867 6.51562C238.867 6.82812 238.828 7.14062 238.75 7.45312L236.172 24.0234C236.109 24.5078 236.078 24.9688 236.078 25.4062C236.078 27.2031 236.641 28.7031 237.766 29.9062C238.906 31.1094 240.375 31.7109 242.172 31.7109C243.734 31.7109 245.086 31.1641 246.227 30.0703C247.367 28.9766 248.078 27.6016 248.359 25.9453L250.961 9.42188C251.18 8.07812 251.711 7.03906 252.555 6.30469C253.414 5.57031 254.43 5.20312 255.602 5.20312C257.008 5.20312 258.172 5.64844 259.094 6.53906C260.031 7.41406 260.5 8.55469 260.5 9.96094C260.5 10.2734 260.484 10.5938 260.453 10.9219L257.758 27.8672C257.164 31.6797 255.398 34.7812 252.461 37.1719C249.539 39.5469 246.172 40.7344 242.359 40.7344C241.531 40.7344 240.688 40.6719 239.828 40.5469ZM280.984 23.6953C280.406 20.6484 279.586 15.2031 278.523 7.35938C278.492 7.14062 278.477 6.90625 278.477 6.65625C278.477 5.53125 278.805 4.44531 279.461 3.39844C280.117 2.33594 281.039 1.54688 282.227 1.03125C282.992 0.6875 283.805 0.515625 284.664 0.515625C286.82 0.515625 288.438 1.32813 289.516 2.95312C292.234 6.76562 294.969 10.5859 297.719 14.4141C301.016 18.9922 303.422 23.0078 304.938 26.4609C305.25 27.1328 305.406 27.8047 305.406 28.4766C305.406 30.3984 304.461 31.7812 302.57 32.625C301.711 33 300.93 33.1875 300.227 33.1875C298.695 33.1875 297.383 32.3438 296.289 30.6562L288.273 17.8828C288.945 21.3984 289.789 26.7266 290.805 33.8672C290.836 34.1484 290.852 34.4375 290.852 34.7344C290.852 36.8125 289.812 38.3125 287.734 39.2344C286.938 39.5938 286.156 39.7734 285.391 39.7734C283.953 39.7734 282.719 39.1641 281.688 37.9453L271.188 25.4062C272.266 28.5781 273.734 33.3984 275.594 39.8672C275.797 40.5703 275.898 41.2109 275.898 41.7891C275.898 43.6172 274.883 44.9766 272.852 45.8672C272.227 46.1484 271.555 46.2891 270.836 46.2891C268.93 46.2891 267.555 45.3672 266.711 43.5234C265.18 40.0547 263.805 35.5703 262.586 30.0703C261.57 25.4609 260.547 20.8516 259.516 16.2422C259.422 15.8984 259.375 15.5156 259.375 15.0938C259.375 14 259.695 12.9375 260.336 11.9062C260.977 10.8594 261.875 10.0859 263.031 9.58594C263.828 9.22656 264.656 9.04688 265.516 9.04688C267.469 9.04688 269.039 9.73438 270.227 11.1094L280.984 23.6953Z" fill="#F2F2F2"/>
</svg>
