<svg width="351" height="1024" viewBox="0 0 351 1024" fill="none" xmlns="http://www.w3.org/2000/svg">
    <rect width="351" height="1024" rx="30" fill="white"/>
    <path fill-rule="evenodd" clip-rule="evenodd"
          d="M351 30C351 13.4315 337.569 0 321 0H30C13.4315 0 0 13.4315 0 30V121V121.42C0 129.301 3.10131 136.865 8.63361 142.478L14.625 148.557C29.25 163.396 58.5 193.073 87.75 207.911C117 222.75 146.25 222.75 175.5 214.271C187.2 210.879 198.9 206.131 210.6 201.383C228.15 194.26 245.7 187.138 263.25 184.594C292.5 180.354 321.75 188.833 336.375 193.073V193.073C343.693 195.194 351 189.704 351 182.085V121V30Z"
          fill="url(#paint0_linear)"/>
    <path fill-rule="evenodd" clip-rule="evenodd"
          d="M0 984.631L14.625 968.227C29.25 951.824 58.5 919.016 87.75 912.455C117 905.893 146.25 925.578 175.5 915.736C204.75 905.893 234 866.525 263.25 856.682C292.5 846.84 321.75 866.525 336.375 876.367L351 886.209V1024H336.375C321.75 1024 292.5 1024 263.25 1024C234 1024 204.75 1024 175.5 1024C146.25 1024 117 1024 87.75 1024C58.5 1024 29.25 1024 14.625 1024H0V984.631Z"
          fill="url(#paint1_linear)"/>
    <defs>
        <linearGradient id="paint0_linear" x1="0" y1="110" x2="351" y2="110" gradientUnits="userSpaceOnUse">
            <stop stop-color="#C84E89"/>
            <stop offset="1" stop-color="#F15F79"/>
        </linearGradient>
        <linearGradient id="paint1_linear" x1="0" y1="939" x2="351" y2="939" gradientUnits="userSpaceOnUse">
            <stop stop-color="#C84E89"/>
            <stop offset="1" stop-color="#F15F79"/>
        </linearGradient>
    </defs>
</svg>
